<svg width="162" height="52" viewBox="0 0 162 52" fill="none" xmlns="http://www.w3.org/2000/svg">
<path d="M0 4.05779C1.52428 2.57363 2.25914 1.87887 3.74331 0.234258C6.25757 12.2135 8.5841 23.4723 11.0984 35.4596C26.9717 23.7467 43.543 12.114 59.2864 0C56.7995 11.0582 53.9916 24.1751 51.6458 35.2189C50.7216 34.5177 50.2146 34.1759 49.1171 33.2935C50.9623 22.2224 51.1436 20.9388 52.9759 11.0582C38.6878 20.8586 24.2553 30.7792 9.30613 41.0079C5.85644 28.8474 3.44969 16.2248 0 4.05779Z" fill="url(#paint0_linear_647_892)"/>
<path d="M9.27856 40.9614L12.9689 42.9398L31.4753 30.7455L50.033 42.8339L53.5629 41.1748L35.5395 28.3388L51.7979 17.3752C52.1916 15.2711 52.5842 13.1676 52.9757 11.0647L9.27856 40.9614Z" fill="url(#paint1_linear_647_892)"/>
<path d="M9.66699 10.9973C15.5138 15.0615 21.8837 19.2733 27.7305 23.3391C26.5721 24.212 25.3607 25.0319 24.2006 25.9063C19.9053 23.0712 15.0469 19.9697 10.75 17.1345C10.3585 15.031 10.0585 13.1008 9.66699 10.9973Z" fill="url(#paint2_linear_647_892)"/>
<path d="M31.6616 20.4767C22.7309 13.9255 12.6482 6.73248 3.71753 0.179688C6.04406 11.4658 8.69149 24.1141 11.0983 35.4595C12.4621 34.4359 12.8359 34.115 13.9591 33.34C12.5953 26.3604 11.0309 17.9769 9.66703 10.9973C16.9146 16.1445 21.9944 19.4081 27.7305 23.3391C29.4955 22.0154 30.3379 21.4394 31.6616 20.4767Z" fill="url(#paint3_linear_647_892)"/>
<path d="M35.5398 28.3388C37.0095 27.3552 37.8663 26.7888 39.1772 25.9063C43.949 29.5036 47.5559 32.1783 51.6474 35.1739C54.0333 23.2075 56.5861 11.5588 59.2865 0.00640869C61.0113 1.93181 61.7702 2.73407 62.8934 3.85722C59.909 16.0033 56.6663 28.8666 53.5632 41.1668C47.9747 37.2438 41.1283 32.2698 35.5398 28.3388Z" fill="url(#paint4_linear_647_892)"/>
<path d="M89 27.2496H90.5736V34.9588H94.9405V36.4226H89V27.2496Z" fill="#7E5FD6"/>
<path d="M105.956 36.4275L110.231 27.1178H110.494L114.763 36.4275H113.129L112.538 35.1418H108.176L107.586 36.4275H105.956ZM111.858 33.6731L110.372 30.4235L108.864 33.6731H111.858Z" fill="#7E5FD6"/>
<path d="M129.505 27.2496C130.093 27.2253 130.676 27.371 131.184 27.6692C131.593 27.9187 131.922 28.2802 132.133 28.7109C132.329 29.1206 132.406 29.5768 132.357 30.0283C132.312 30.4836 132.136 30.9163 131.852 31.275C132.191 31.4832 132.475 31.7714 132.677 32.1142C132.876 32.4453 133.008 32.8126 133.065 33.195C133.121 33.5775 133.105 33.9673 133.018 34.344C132.933 34.7225 132.766 35.0779 132.53 35.3858C132.282 35.7049 131.964 35.9628 131.601 36.1396C131.175 36.3408 130.708 36.4394 130.237 36.4275H126.319V27.2496H129.505ZM127.893 28.7133V30.8505H129.53C129.697 30.8586 129.865 30.8321 130.022 30.7725C130.179 30.7129 130.322 30.6215 130.442 30.504C130.634 30.3088 130.743 30.0462 130.745 29.7721C130.737 29.4968 130.625 29.2348 130.43 29.0402C130.307 28.9247 130.161 28.8361 130.002 28.7798C129.843 28.7235 129.674 28.7009 129.505 28.7133H127.893ZM127.893 32.3191V34.9539H130.24C130.486 34.9626 130.729 34.8944 130.935 34.7588C131.112 34.634 131.254 34.466 131.347 34.2708C131.437 34.0707 131.484 33.8536 131.484 33.6341C131.484 33.4146 131.437 33.1975 131.347 32.9974C131.254 32.802 131.112 32.634 130.935 32.5094C130.73 32.3719 130.486 32.3027 130.24 32.3118L127.893 32.3191Z" fill="#7E5FD6"/>
<path d="M146.034 34.2513C146.298 34.6243 146.676 34.9023 147.11 35.0442C147.541 35.1876 147.993 35.2609 148.447 35.2613C148.636 35.2605 148.825 35.2425 149.011 35.2077C149.207 35.1757 149.397 35.114 149.574 35.0247C149.743 34.9426 149.891 34.8243 150.008 34.6783C150.125 34.5213 150.185 34.3296 150.179 34.1342C150.181 33.9212 150.104 33.715 149.962 33.556C149.796 33.3721 149.601 33.2171 149.384 33.0974C149.121 32.9468 148.848 32.8155 148.567 32.7046C148.259 32.5826 147.947 32.4606 147.627 32.3118C147.308 32.163 146.995 32.019 146.691 31.858C146.396 31.7039 146.12 31.5147 145.871 31.2945C145.634 31.0835 145.439 30.8304 145.295 30.5479C145.145 30.2396 145.071 29.9001 145.078 29.5574C145.066 29.1701 145.147 28.7855 145.313 28.4355C145.479 28.0855 145.726 27.7802 146.034 27.5447C146.335 27.3173 146.675 27.1462 147.037 27.0397C147.423 26.9259 147.823 26.8684 148.225 26.869C148.825 26.8681 149.419 26.991 149.969 27.23C150.52 27.466 151.022 27.8018 151.45 28.2205L150.413 29.3745C150.118 29.0751 149.769 28.8342 149.384 28.6645C148.999 28.4986 148.583 28.4154 148.164 28.4206C147.97 28.4194 147.777 28.4399 147.588 28.4816C147.416 28.5178 147.25 28.5838 147.1 28.6767C146.957 28.7694 146.838 28.8959 146.754 29.0451C146.661 29.2196 146.615 29.4158 146.622 29.6136C146.625 29.7473 146.661 29.8783 146.727 29.9943C146.794 30.1103 146.889 30.2076 147.003 30.2771C147.298 30.4769 147.613 30.6461 147.942 30.7821C148.318 30.9448 148.724 31.1131 149.162 31.2872C149.589 31.457 149.998 31.6704 150.382 31.9239C150.751 32.1676 151.072 32.4788 151.326 32.8412C151.589 33.2388 151.722 33.7087 151.706 34.1854C151.715 34.5931 151.611 34.9952 151.404 35.3467C151.206 35.6709 150.943 35.9501 150.631 36.1664C150.306 36.3901 149.944 36.5553 149.562 36.6544C149.175 36.7582 148.777 36.8115 148.376 36.8129C148.035 36.8126 147.695 36.7815 147.359 36.7202C147.024 36.6608 146.697 36.5642 146.383 36.4324C146.075 36.3043 145.782 36.1405 145.512 35.9444C145.234 35.7375 144.987 35.4909 144.78 35.2125L146.034 34.2513Z" fill="#7E5FD6"/>
<path d="M84.1814 13.3167L80.5951 18.2668L76.982 13.3192C76.86 13.6876 76.7722 13.9315 76.699 14.1779C76.155 16.0369 75.5963 17.896 75.0791 19.7647C74.962 20.1868 74.8083 20.3576 74.3472 20.3429C73.2664 20.3112 72.1832 20.3429 71 20.3429L75.4889 5.01464L80.5878 12.0262L85.694 5C87.2114 10.1842 88.685 15.2099 90.1805 20.321C88.9363 20.321 87.7701 20.3429 86.604 20.299C86.4405 20.299 86.2039 19.994 86.1404 19.7891C85.533 17.8057 84.9548 15.8125 84.3668 13.8242C84.3278 13.6973 84.2717 13.5753 84.1814 13.3167Z" fill="black"/>
<path d="M122.857 5.02926C125.102 5.02926 127.29 5.02926 129.479 5.02926C130.312 4.9954 131.147 5.0117 131.979 5.07806C133.089 5.19714 134.128 5.68115 134.934 6.45422C135.739 7.22729 136.265 8.24572 136.429 9.34988C136.751 11.6944 135.583 13.79 133.397 14.7878L132.887 15.0196C134.077 16.7615 135.251 18.4839 136.502 20.321C135.117 20.321 133.846 20.3356 132.575 20.3039C132.409 20.3039 132.209 20.0745 132.087 19.9062C131.235 18.6864 130.398 17.4519 129.559 16.2248C129.086 15.5319 128.747 14.639 127.49 15.0806C127.895 13.951 128.222 12.9776 128.61 12.0188C128.656 11.8993 128.937 11.8212 129.113 11.8164C129.859 11.792 130.603 11.8164 131.35 11.7968C132.326 11.7602 133.058 11.0649 133.058 10.1501C133.061 9.92901 133.02 9.70947 132.939 9.504C132.857 9.29853 132.736 9.11116 132.582 8.95257C132.428 8.79399 132.244 8.6673 132.041 8.57975C131.838 8.49221 131.62 8.44551 131.399 8.44233C129.708 8.39598 128.017 8.42769 126.224 8.42769V20.2917H122.857V5.02926Z" fill="black"/>
<path d="M147.244 5.03415C148.603 5.03415 149.86 5.01707 151.113 5.05123C151.277 5.05123 151.472 5.29519 151.589 5.45865C152.47 6.7419 153.336 8.03491 154.273 9.42307L155.307 7.89342C155.837 7.10785 156.393 6.33692 156.891 5.53184C156.983 5.35592 157.128 5.21258 157.304 5.12101C157.481 5.02944 157.681 4.99403 157.879 5.01952C158.976 5.04879 160.074 5.01952 161.314 5.01952C158.981 8.50577 156.727 11.8798 154.483 15.2538L154.585 15.388C155.444 15.144 156.307 14.9196 157.159 14.6561C157.564 14.5292 157.791 14.6024 158.035 14.9781C159.179 16.7298 160.365 18.4546 161.616 20.3112C160.221 20.3112 158.947 20.3258 157.676 20.2917C157.515 20.2917 157.33 20.0477 157.213 19.8696C156.237 18.4546 155.293 17.0299 154.285 15.5319C153.358 16.9079 152.441 18.2155 151.601 19.5525C151.235 20.1331 150.833 20.3771 150.138 20.3332C149.128 20.2673 148.11 20.3161 147.003 20.3161C147.137 20.0867 147.222 19.916 147.327 19.7574C148.828 17.53 150.308 15.288 151.843 13.085C152.182 12.597 152.121 12.2945 151.819 11.853C150.413 9.80853 149.035 7.74216 147.652 5.68066C147.517 5.50988 147.415 5.31715 147.244 5.03415Z" fill="black"/>
<path d="M107.878 20.3234C106.643 20.3234 105.516 20.3478 104.392 20.299C104.262 20.2675 104.14 20.2074 104.036 20.123C103.932 20.0385 103.849 19.932 103.791 19.8111C103.725 19.6232 103.595 19.4643 103.424 19.3616C103.253 19.2588 103.052 19.2185 102.855 19.2475C101.437 19.2792 100.02 19.2597 98.5097 19.2597C98.9073 18.157 99.2635 17.1396 99.6563 16.1369C99.7111 16.0643 99.7813 16.0048 99.8619 15.9626C99.9424 15.9204 100.031 15.8966 100.122 15.893C100.61 15.8588 101.098 15.8808 101.706 15.8808C101.076 14.661 100.513 13.5778 99.9076 12.4092L97.1166 17.7471C96.7507 18.4473 96.3701 19.1377 96.0285 19.8501C95.9772 20.0076 95.8727 20.1424 95.733 20.2314C95.5932 20.3204 95.4269 20.3581 95.2625 20.338C94.1891 20.3063 93.1156 20.338 91.9397 20.338C94.6038 15.2148 97.2215 10.1818 99.9051 5.01462C102.569 10.1354 105.197 15.1733 107.878 20.3234Z" fill="black"/>
<path d="M115.035 20.2917H111.639V8.43992H106.606V5.06833H120V8.4082H115.035V20.2917Z" fill="black"/>
<path d="M143.378 20.3039H140.086V5.06345H143.378V20.3039Z" fill="black"/>
<defs>
<linearGradient id="paint0_linear_647_892" x1="0" y1="20.5104" x2="59.2864" y2="20.5104" gradientUnits="userSpaceOnUse">
<stop stop-color="#DFD4FF"/>
<stop offset="0.01" stop-color="#DECFFF"/>
<stop offset="0.05" stop-color="#D59EFF"/>
<stop offset="0.08" stop-color="#CD74FF"/>
<stop offset="0.12" stop-color="#C752FF"/>
<stop offset="0.16" stop-color="#C237FF"/>
<stop offset="0.2" stop-color="#BF24FF"/>
<stop offset="0.24" stop-color="#BD19FF"/>
<stop offset="0.28" stop-color="#BC15FF"/>
<stop offset="0.67" stop-color="#DA94FF"/>
<stop offset="0.89" stop-color="#C83FFF"/>
<stop offset="1" stop-color="#A400D4"/>
</linearGradient>
<linearGradient id="paint1_linear_647_892" x1="9.27856" y1="27.0022" x2="53.5629" y2="27.0022" gradientUnits="userSpaceOnUse">
<stop offset="0.34" stop-color="#1F006A"/>
<stop offset="0.39" stop-color="#2A007F"/>
<stop offset="0.49" stop-color="#3C00A2"/>
<stop offset="0.54" stop-color="#4300B0"/>
<stop offset="0.58" stop-color="#3D00C5"/>
<stop offset="0.62" stop-color="#3700D9"/>
<stop offset="0.66" stop-color="#3300E5"/>
<stop offset="0.7" stop-color="#3200E9"/>
<stop offset="0.75" stop-color="#2B00D1"/>
<stop offset="0.81" stop-color="#2400B6"/>
<stop offset="0.87" stop-color="#1F00A3"/>
<stop offset="0.93" stop-color="#1C0098"/>
<stop offset="1" stop-color="#1B0094"/>
</linearGradient>
<linearGradient id="paint2_linear_647_892" x1="9.66699" y1="18.4518" x2="27.7305" y2="18.4518" gradientUnits="userSpaceOnUse">
<stop offset="0.66" stop-color="#4500AA"/>
<stop offset="0.67" stop-color="#4400AC"/>
<stop offset="0.75" stop-color="#3C00C7"/>
<stop offset="0.83" stop-color="#3700DA"/>
<stop offset="0.91" stop-color="#3300E5"/>
<stop offset="1" stop-color="#3200E9"/>
</linearGradient>
<linearGradient id="paint3_linear_647_892" x1="3.71753" y1="17.8196" x2="31.6616" y2="17.8196" gradientUnits="userSpaceOnUse">
<stop offset="0.09" stop-color="#926AFF"/>
<stop offset="0.45" stop-color="#5D2AFF"/>
<stop offset="0.73" stop-color="#3200E9"/>
<stop offset="1" stop-color="#4500AA"/>
</linearGradient>
<linearGradient id="paint4_linear_647_892" x1="35.5398" y1="20.5906" x2="62.8934" y2="20.5906" gradientUnits="userSpaceOnUse">
<stop offset="0.14" stop-color="#4500AA"/>
<stop offset="0.15" stop-color="#4D0BB3"/>
<stop offset="0.2" stop-color="#662DCE"/>
<stop offset="0.25" stop-color="#7948E4"/>
<stop offset="0.3" stop-color="#875BF3"/>
<stop offset="0.35" stop-color="#8F66FC"/>
<stop offset="0.4" stop-color="#926AFF"/>
<stop offset="0.65" stop-color="#5D2AFF"/>
<stop offset="0.84" stop-color="#3200E9"/>
<stop offset="1" stop-color="#8255FF"/>
</linearGradient>
</defs>
</svg>
